<svg xmlns="http://www.w3.org/2000/svg" width="320" height="320" viewBox="0 0 320 320"><rect width="320" height="320" fill="#d5e4e4"/><path d="M0 100L60 50 120 90 190 40 260 96 330 60V330H0Z" fill="#5f8a74"/><path d="M-10 136Q100 118 200 136T340 130V160Q220 156 120 164T-10 158Z" fill="#eef4f2" opacity=".85"/><g transform="translate(34 138) scale(1.2)"><path d="M-2 0h4l2 14h-8z" fill="#a8653a"/><ellipse cx="0" cy="-8" rx="17" ry="11" fill="#1f5440"/><ellipse cx="-9" cy="-14" rx="9" ry="7" fill="#1f5440"/><ellipse cx="8" cy="-15" rx="10" ry="7" fill="#1f5440"/></g><g transform="translate(286 134) scale(1.25)"><path d="M-2 0h4l2 14h-8z" fill="#a8653a"/><ellipse cx="0" cy="-8" rx="17" ry="11" fill="#2b6a4a"/><ellipse cx="-9" cy="-14" rx="9" ry="7" fill="#2b6a4a"/><ellipse cx="8" cy="-15" rx="10" ry="7" fill="#2b6a4a"/></g><path d="M0 180Q80 164 160 178T330 170V330H0Z" fill="#3e8257"/><rect x="132" y="226" width="56" height="38" fill="#efe5cf"/><path d="M124 228l36-26 36 26Z" fill="#b8693f"/><rect x="152" y="242" width="14" height="22" fill="#6b4a2c"/><g transform="translate(54 300) scale(1)"><path d="M-2 0h4l2 14h-8z" fill="#a8653a"/><ellipse cx="0" cy="-8" rx="17" ry="11" fill="#245a42"/><ellipse cx="-9" cy="-14" rx="9" ry="7" fill="#245a42"/><ellipse cx="8" cy="-15" rx="10" ry="7" fill="#245a42"/></g><g transform="translate(270 304) scale(1.05)"><path d="M-2 0h4l2 14h-8z" fill="#a8653a"/><ellipse cx="0" cy="-8" rx="17" ry="11" fill="#1f5440"/><ellipse cx="-9" cy="-14" rx="9" ry="7" fill="#1f5440"/><ellipse cx="8" cy="-15" rx="10" ry="7" fill="#1f5440"/></g></svg>