<svg xmlns="http://www.w3.org/2000/svg" width="320" height="320" viewBox="0 0 320 320"><rect width="320" height="320" fill="#e6dfca"/><circle cx="70" cy="58" r="20" fill="#fff6dc"/><path d="M0 150Q90 96 200 120T330 112V330H0Z" fill="#b9ad8e"/><g fill="#e3cfa0"><path d="M188 66l52-26 52 26Z"/><rect x="190" y="66" width="100" height="8"/><rect x="196" y="74" width="12" height="54"/><rect x="222" y="74" width="12" height="54"/><rect x="246" y="74" width="12" height="54"/><rect x="272" y="74" width="12" height="54"/><rect x="186" y="126" width="108" height="10"/></g><g transform="translate(46 140) scale(0.9)"><path d="M-2 0h4l2 14h-8z" fill="#6b5640"/><ellipse cx="0" cy="-8" rx="17" ry="11" fill="#6b7a32"/><ellipse cx="-9" cy="-14" rx="9" ry="7" fill="#6b7a32"/><ellipse cx="8" cy="-15" rx="10" ry="7" fill="#6b7a32"/></g><path d="M0 214Q140 198 330 216V330H0Z" fill="#9aa39a"/><g fill="#e7dfc9"><rect x="30" y="246" width="40" height="22"/><rect x="76" y="256" width="30" height="16"/><rect x="236" y="250" width="46" height="24"/></g><g fill="#7c8a8f"><rect x="44" y="290" width="34" height="16"/><rect x="250" y="292" width="38" height="16"/></g></svg>