<svg xmlns="http://www.w3.org/2000/svg" width="320" height="320" viewBox="0 0 320 320"><rect width="320" height="320" fill="#f1d3b6"/><path d="M0 140Q100 120 200 136T330 130V330H0Z" fill="#dd9572"/><g transform="translate(34 132) scale(1.05)"><rect x="-2.5" y="-4" width="5" height="16" fill="#6b5640"/><circle cx="0" cy="-14" r="14" fill="#6f9a52"/></g><g transform="translate(72 126) scale(0.9)"><rect x="-2.5" y="-4" width="5" height="16" fill="#6b5640"/><circle cx="0" cy="-14" r="14" fill="#7fab5f"/></g><g transform="translate(108 134) scale(0.95)"><rect x="-2.5" y="-4" width="5" height="16" fill="#6b5640"/><circle cx="0" cy="-14" r="14" fill="#6f9a52"/></g><path d="M210 140v-34a34 34 0 0 1 68 0v34Z" fill="#b8693f"/><path d="M234 140v-18a10 10 0 0 1 20 0v18Z" fill="#5a2e1a"/><rect x="274" y="70" width="12" height="44" fill="#9a5434"/><path d="M280 60q-10-14 4-26" fill="none" stroke="#c9b8a6" stroke-width="5" stroke-linecap="round"/><path d="M0 214Q140 198 330 216V330H0Z" fill="#c98258"/><rect x="30" y="238" width="100" height="40" fill="#a85e38"/><path d="M30 246h100" stroke="#f0cfb0" stroke-width="1.5"/><path d="M30 254h100" stroke="#f0cfb0" stroke-width="1.5"/><path d="M30 262h100" stroke="#f0cfb0" stroke-width="1.5"/><path d="M30 270h100" stroke="#f0cfb0" stroke-width="1.5"/><g fill="#b8693f"><rect x="210" y="258" width="24" height="12"/><rect x="238" y="258" width="24" height="12"/><rect x="266" y="258" width="24" height="12"/><rect x="224" y="244" width="24" height="12"/><rect x="252" y="244" width="24" height="12"/><rect x="238" y="230" width="24" height="12"/></g></svg>