<svg xmlns="http://www.w3.org/2000/svg" width="320" height="320" viewBox="0 0 320 320"><rect width="320" height="320" fill="#d4e7c8"/><path d="M0 120Q100 98 200 116T330 108V330H0Z" fill="#a9c873"/><path d="M180 124q40-62 80-64t76 64Z" fill="#b8a77e"/><path d="M206 92h70" stroke="#93845e" stroke-width="4"/><g transform="translate(40 120) scale(1)"><rect x="-2.5" y="-4" width="5" height="16" fill="#6b5640"/><circle cx="0" cy="-14" r="14" fill="#5f8f4a"/></g><g transform="translate(76 116) scale(0.85)"><rect x="-2.5" y="-4" width="5" height="16" fill="#6b5640"/><circle cx="0" cy="-14" r="14" fill="#6fa058"/></g><path d="M-10 156Q120 140 180 160T340 150V190Q200 200 140 184T-10 192Z" fill="#4f93a0"/><path d="M-10 172q20 -4 40 0t40 0t40 0t40 0t40 0t40 0t40 0t40 0t40 0" fill="none" stroke="#9fd1d4" stroke-width="4" stroke-linecap="round"/><path d="M0 214Q140 198 330 216V330H0Z" fill="#8bab61"/><g transform="translate(60 262) scale(1.1 1.1)"><path d="M-11 6v10M-3 6v10M5 6v10M11 6v10" stroke="#3b3326" stroke-width="3.2"/><ellipse cx="0" cy="0" rx="17" ry="11" fill="#fbf6e9"/><circle cx="-9" cy="-6" r="7" fill="#fbf6e9"/><circle cx="6" cy="-7" r="8" fill="#fbf6e9"/><ellipse cx="19" cy="-3" rx="6" ry="7.5" fill="#3b3326"/></g><g transform="translate(236 258) scale(-1.15 1.15)"><path d="M-11 6v10M-3 6v10M5 6v10M11 6v10" stroke="#3b3326" stroke-width="3.2"/><ellipse cx="0" cy="0" rx="17" ry="11" fill="#fbf6e9"/><circle cx="-9" cy="-6" r="7" fill="#fbf6e9"/><circle cx="6" cy="-7" r="8" fill="#fbf6e9"/><ellipse cx="19" cy="-3" rx="6" ry="7.5" fill="#3b3326"/></g><g transform="translate(150 300) scale(1 1)"><path d="M-11 6v10M-3 6v10M5 6v10M11 6v10" stroke="#3b3326" stroke-width="3.2"/><ellipse cx="0" cy="0" rx="17" ry="11" fill="#fbf6e9"/><circle cx="-9" cy="-6" r="7" fill="#fbf6e9"/><circle cx="6" cy="-7" r="8" fill="#fbf6e9"/><ellipse cx="19" cy="-3" rx="6" ry="7.5" fill="#3b3326"/></g></svg>